# xmcd
#
# Track frame offsets:
#	150
#	11947
#	30492
#	42792
#	55512
#	67745
#	79130
#	90835
#	103265
#	120320
#
# Disc length: 1843 seconds
# Revision: 4
# Processed by: cddbd v1.5.2PL0 Copyright (c) Steve Scherf et al.
# Submitted via: dBpowerAMP V12.0
#
DISCID=6a07310a
DTITLE=Johnny Cash - Super Hits
DYEAR=1994
DGENRE=Country
TTITLE0=Ring Of Fire
TTITLE1=Sunday Mornin' Comin' Down
TTITLE2=I Walk The Line
TTITLE3=Folsom Prison Blues
TTITLE4=Understand Your Man
TTITLE5=Big River
TTITLE6=I Still Miss Someone
TTITLE7=Jackson (with June Carter)
TTITLE8=A Boy Named Sue
TTITLE9=One Piece At A Time
EXTD=
EXTT0=
EXTT1=
EXTT2=
EXTT3=
EXTT4=
EXTT5=
EXTT6=
EXTT7=
EXTT8=
EXTT9=
PLAYORDER=
